<svg width="100" height="100" viewBox="0 0 100 100" fill="none" xmlns="http://www.w3.org/2000/svg">
<rect width="100" height="100" rx="50" fill="#EB2F96"/>
<path d="M87.9968 41.6476L83.5272 63.838C80.9955 76.411 74.2157 77.4712 65.6486 77.5463C61.8496 77.5463 60.21 77.3962 57.4538 76.411C51.2707 73.912 49.0375 79.5917 40.7689 77.5463C37.4158 76.7144 33.3184 74.2154 29.5194 77.9247C32.4232 74.4405 36.5976 74.894 40.2459 75.4258C47.6963 76.486 49.4097 68.154 42.2577 68.9109C37.1174 69.4394 33.466 74.7439 26.4648 71.2598C22.2197 69.1393 19.4635 64.9733 14.0249 65.8052C11.7147 66.1836 6.27923 69.136 3 67.3189C6.50062 68.9109 10.6719 65.8802 13.3543 64.97C18.7929 63.1529 21.6229 65.4985 24.9022 67.3189C30.6392 70.4996 35.3302 67.7723 36.2992 65.6518C37.865 62.1677 35.3302 58.3051 29.221 59.5154C26.9878 59.9689 20.1341 62.1677 17.1533 58.5302C20.2079 61.4826 25.6466 59.137 28.252 58.2268C35.4778 55.7278 37.6372 57.9234 42.2577 60.8758C49.0375 65.1918 52.0151 61.2542 52.9103 57.545C54.1008 52.6221 52.9103 52.2437 49.0375 52.5471C46.4289 52.7754 43.8973 52.472 40.9165 49.5947C36.7452 45.5037 32.7954 47.6242 30.8606 49.3663C33.4692 46.714 36.7452 45.1253 42.4085 48.0027C52.5381 53.1539 57.457 38.157 49.0375 37.7035C41.5133 37.3251 39.8737 41.1877 31.9034 42.9297C28.775 43.6116 23.1117 43.6866 19.0175 39.899C24.4562 44.1401 35.5548 41.8695 35.8532 36.1865C36.1516 30.0501 23.9331 26.2658 12.3885 36.5649C18.7961 30.2784 25.6466 27.9296 31.7558 28.3863C37.4928 28.8398 39.6523 31.6421 44.4203 32.7806C50.2311 34.1443 57.9768 32.4772 59.4688 28.9931C60.81 25.8873 56.9372 24.0702 50.9755 26.5692C46.5059 28.4613 43.6759 28.9931 38.2372 25.8874C45.0909 29.3715 48.5915 25.584 52.3167 23.5385C59.7672 19.4475 63.9384 24.8271 71.3119 24.6738C73.2499 24.5237 75.3355 24.5237 77.4949 24.5237H86.2866L84.1272 35.0512H79.6575L80.8479 29.0681C71.9087 29.0681 69.3771 30.2784 67.7375 38.307L65.5042 49.0629L62.748 62.6962C60.81 72.3135 61.4806 72.9953 65.6518 72.9953C69.0049 72.9953 71.1643 72.4668 72.9515 63.7564L76.5259 46.1855H72.2809V41.6411H88L87.9968 41.6476Z" fill="#F7F7F7"/>
</svg>